<svg id="visual" viewBox="0 0 400 100" width="400" height="100" xmlns="http://www.w3.org/2000/svg" xmlns:xlink="http://www.w3.org/1999/xlink" version="1.1"><rect x="0" y="0" width="400" height="100" fill="#FFFFFF"></rect><defs><linearGradient id="grad1_0" x1="75%" y1="0%" x2="100%" y2="100%"><stop offset="-30%" stop-color="#7e746d" stop-opacity="1"></stop><stop offset="130%" stop-color="#7e746d" stop-opacity="1"></stop></linearGradient></defs><defs><linearGradient id="grad1_1" x1="75%" y1="0%" x2="100%" y2="100%"><stop offset="-30%" stop-color="#7e746d" stop-opacity="1"></stop><stop offset="130%" stop-color="#978e88" stop-opacity="1"></stop></linearGradient></defs><defs><linearGradient id="grad1_2" x1="75%" y1="0%" x2="100%" y2="100%"><stop offset="-30%" stop-color="#b0a9a5" stop-opacity="1"></stop><stop offset="130%" stop-color="#978e88" stop-opacity="1"></stop></linearGradient></defs><defs><linearGradient id="grad1_3" x1="75%" y1="0%" x2="100%" y2="100%"><stop offset="-30%" stop-color="#b0a9a5" stop-opacity="1"></stop><stop offset="130%" stop-color="#cac5c2" stop-opacity="1"></stop></linearGradient></defs><defs><linearGradient id="grad1_4" x1="75%" y1="0%" x2="100%" y2="100%"><stop offset="-30%" stop-color="#e4e2e0" stop-opacity="1"></stop><stop offset="130%" stop-color="#cac5c2" stop-opacity="1"></stop></linearGradient></defs><defs><linearGradient id="grad1_5" x1="75%" y1="0%" x2="100%" y2="100%"><stop offset="-30%" stop-color="#e4e2e0" stop-opacity="1"></stop><stop offset="130%" stop-color="#ffffff" stop-opacity="1"></stop></linearGradient></defs><defs><linearGradient id="grad2_0" x1="0%" y1="0%" x2="25%" y2="100%"><stop offset="-30%" stop-color="#7e746d" stop-opacity="1"></stop><stop offset="130%" stop-color="#7e746d" stop-opacity="1"></stop></linearGradient></defs><defs><linearGradient id="grad2_1" x1="0%" y1="0%" x2="25%" y2="100%"><stop offset="-30%" stop-color="#978e88" stop-opacity="1"></stop><stop offset="130%" stop-color="#7e746d" stop-opacity="1"></stop></linearGradient></defs><defs><linearGradient id="grad2_2" x1="0%" y1="0%" x2="25%" y2="100%"><stop offset="-30%" stop-color="#978e88" stop-opacity="1"></stop><stop offset="130%" stop-color="#b0a9a5" stop-opacity="1"></stop></linearGradient></defs><defs><linearGradient id="grad2_3" x1="0%" y1="0%" x2="25%" y2="100%"><stop offset="-30%" stop-color="#cac5c2" stop-opacity="1"></stop><stop offset="130%" stop-color="#b0a9a5" stop-opacity="1"></stop></linearGradient></defs><defs><linearGradient id="grad2_4" x1="0%" y1="0%" x2="25%" y2="100%"><stop offset="-30%" stop-color="#cac5c2" stop-opacity="1"></stop><stop offset="130%" stop-color="#e4e2e0" stop-opacity="1"></stop></linearGradient></defs><defs><linearGradient id="grad2_5" x1="0%" y1="0%" x2="25%" y2="100%"><stop offset="-30%" stop-color="#ffffff" stop-opacity="1"></stop><stop offset="130%" stop-color="#e4e2e0" stop-opacity="1"></stop></linearGradient></defs><g transform="translate(400, 0)"><path d="M0 95C-12.5 91.6 -25.1 88.2 -33.7 81.3C-42.3 74.4 -47 63.8 -56.6 56.6C-66.1 49.3 -80.6 45.2 -87.8 36.4C-95 27.5 -95 13.7 -95 0L0 0Z" fill="#f1f0ef"></path><path d="M0 79.2C-10.4 76.4 -20.9 73.5 -28.1 67.8C-35.2 62 -39.2 53.2 -47.1 47.1C-55.1 41.1 -67.1 37.7 -73.1 30.3C-79.2 22.9 -79.2 11.4 -79.2 0L0 0Z" fill="#d7d3d1"></path><path d="M0 63.3C-8.4 61.1 -16.7 58.8 -22.5 54.2C-28.2 49.6 -31.3 42.6 -37.7 37.7C-44.1 32.9 -53.7 30.2 -58.5 24.2C-63.3 18.3 -63.3 9.2 -63.3 0L0 0Z" fill="#bdb7b3"></path><path d="M0 47.5C-6.3 45.8 -12.5 44.1 -16.8 40.7C-21.1 37.2 -23.5 31.9 -28.3 28.3C-33.1 24.6 -40.3 22.6 -43.9 18.2C-47.5 13.7 -47.5 6.9 -47.5 0L0 0Z" fill="#a39c96"></path><path d="M0 31.7C-4.2 30.5 -8.4 29.4 -11.2 27.1C-14.1 24.8 -15.7 21.3 -18.9 18.9C-22 16.4 -26.9 15.1 -29.3 12.1C-31.7 9.2 -31.7 4.6 -31.7 0L0 0Z" fill="#8a817b"></path><path d="M0 15.8C-2.1 15.3 -4.2 14.7 -5.6 13.6C-7 12.4 -7.8 10.6 -9.4 9.4C-11 8.2 -13.4 7.5 -14.6 6.1C-15.8 4.6 -15.8 2.3 -15.8 0L0 0Z" fill="#7e746d"></path></g><g transform="translate(0, 100)"><path d="M0 -95C13.4 -94.9 26.7 -94.8 36.4 -87.8C46 -80.7 51.8 -66.8 55.9 -55.9C59.9 -45 62.1 -37.1 68.4 -28.3C74.6 -19.5 84.8 -9.8 95 0L0 0Z" fill="#f1f0ef"></path><path d="M0 -79.2C11.1 -79.1 22.3 -79 30.3 -73.1C38.3 -67.3 43.2 -55.6 46.6 -46.6C49.9 -37.5 51.8 -30.9 57 -23.6C62.2 -16.3 70.7 -8.1 79.2 0L0 0Z" fill="#d7d3d1"></path><path d="M0 -63.3C8.9 -63.3 17.8 -63.2 24.2 -58.5C30.6 -53.8 34.5 -44.5 37.2 -37.2C39.9 -30 41.4 -24.7 45.6 -18.9C49.7 -13 56.5 -6.5 63.3 0L0 0Z" fill="#bdb7b3"></path><path d="M0 -47.5C6.7 -47.5 13.4 -47.4 18.2 -43.9C23 -40.4 25.9 -33.4 27.9 -27.9C30 -22.5 31.1 -18.6 34.2 -14.2C37.3 -9.8 42.4 -4.9 47.5 0L0 0Z" fill="#a39c96"></path><path d="M0 -31.7C4.5 -31.6 8.9 -31.6 12.1 -29.3C15.3 -26.9 17.3 -22.3 18.6 -18.6C20 -15 20.7 -12.4 22.8 -9.4C24.9 -6.5 28.3 -3.3 31.7 0L0 0Z" fill="#8a817b"></path><path d="M0 -15.8C2.2 -15.8 4.5 -15.8 6.1 -14.6C7.7 -13.5 8.6 -11.1 9.3 -9.3C10 -7.5 10.4 -6.2 11.4 -4.7C12.4 -3.3 14.1 -1.6 15.8 0L0 0Z" fill="#7e746d"></path></g></svg>